REM MD5 bfafa64d06e631a06156ea6ac3bf69ec
FILE "Psalm 69 (Japan) (Beta) (1996-05-14).bin" BINARY
  TRACK 01 MODE2/2352
    INDEX 01 00:00:00
  TRACK 02 AUDIO
    INDEX 00 02:33:44
    INDEX 01 02:36:44
  TRACK 03 AUDIO
    INDEX 00 03:21:45
    INDEX 01 06:23:45
REM LEADOUT 07:08:46
